<svg width="217" height="74" viewBox="0 0 217 74" fill="none" xmlns="http://www.w3.org/2000/svg">
<path d="M60.4276 36.6265L45.9296 66.3856H39.0621H15.8712L9.34937 53.4137L0.909424 36.6265L15.4074 6.86743H22.2749H45.9296L52.2493 19.8393L60.4276 36.6265Z" fill="white"/>
<path d="M39.0621 53.4138L47.4557 36.6266L39.0621 19.8394L52.7971 36.6266L39.0621 53.4138Z" fill="black"/>
<path d="M19.9857 22.8916L22.2749 19.8394L13.8813 36.6265L22.2749 53.4137L9.30298 36.6265L19.9857 22.8916Z" fill="black"/>
<path d="M82.2313 36.313C81.0688 36.313 80.1548 35.9851 79.4891 35.3293C78.8234 34.6637 78.4906 33.6751 78.4906 32.3636V12.9593H80.9198V32.1996C80.9198 32.8852 81.049 33.382 81.3073 33.69C81.5756 33.988 81.9879 34.1371 82.5443 34.1371C82.8821 34.1371 83.2249 34.0824 83.5726 33.9731L83.7813 34.0328L84.0644 35.9404C83.8856 36.0596 83.6273 36.149 83.2895 36.2086C82.9616 36.2782 82.6089 36.313 82.2313 36.313ZM100.294 28.3397H88.9975C89.067 30.3367 89.5439 31.8022 90.4282 32.7362C91.3224 33.6701 92.5445 34.1371 94.0944 34.1371C95.2668 34.1371 96.2107 33.9284 96.9261 33.5111C97.6414 33.0938 98.2028 32.4381 98.6101 31.5439H98.9231L100.503 32.4828C100.026 33.6751 99.2609 34.614 98.2078 35.2995C97.1645 35.9752 95.7934 36.313 94.0944 36.313C92.5047 36.313 91.1386 36 89.996 35.3741C88.8534 34.7481 87.9741 33.7993 87.3581 32.5275C86.7421 31.2558 86.4341 29.676 86.4341 27.7882C86.4341 25.9203 86.757 24.3455 87.4028 23.0639C88.0585 21.7822 88.9478 20.8283 90.0705 20.2024C91.2032 19.5665 92.4948 19.2486 93.9454 19.2486C96.0517 19.2486 97.6961 19.8447 98.8784 21.037C100.061 22.2193 100.657 23.9779 100.667 26.3128C100.667 27.2269 100.647 27.8429 100.607 28.1608L100.294 28.3397ZM98.2674 26.3128C98.2276 24.5641 97.8401 23.2924 97.1049 22.4975C96.3697 21.7027 95.3165 21.3053 93.9454 21.3053C92.5047 21.3053 91.3721 21.7076 90.5474 22.5124C89.7327 23.3073 89.2359 24.5741 89.0571 26.3128H98.2674ZM112.56 36H109.221L102.962 19.5616H105.585L110.756 33.228H111.099L116.226 19.5616H118.789L112.56 36ZM123.678 16.3871C123.161 16.3871 122.739 16.2282 122.411 15.9102C122.093 15.5823 121.934 15.17 121.934 14.6732C121.934 14.1765 122.093 13.7691 122.411 13.4512C122.739 13.1233 123.161 12.9593 123.678 12.9593C124.194 12.9593 124.612 13.1233 124.93 13.4512C125.257 13.7691 125.421 14.1765 125.421 14.6732C125.421 15.17 125.257 15.5823 124.93 15.9102C124.612 16.2282 124.194 16.3871 123.678 16.3871ZM122.456 36V19.5616H124.885V36H122.456ZM138.879 33.3919L139.654 35.1356C139.267 35.5231 138.755 35.8162 138.119 36.0149C137.493 36.2136 136.813 36.313 136.077 36.313C132.938 36.313 131.368 34.7233 131.368 31.5439V21.5437H128.506V19.5467H131.368V16.0742L133.797 15.6718V19.5467H139.088V21.5437H133.797V31.3054C133.797 33.1932 134.617 34.1371 136.256 34.1371C137.15 34.1371 137.92 33.8887 138.566 33.3919H138.879ZM147.061 36.313C145.442 36.313 144.175 35.8907 143.261 35.0462C142.357 34.2017 141.905 32.9945 141.905 31.4247C141.905 30.451 142.103 29.6313 142.501 28.9656C142.908 28.29 143.534 27.7435 144.378 27.3262C145.223 26.899 146.326 26.5711 147.687 26.3426C148.879 26.1439 149.783 25.9203 150.399 25.6719C151.025 25.4236 151.443 25.1454 151.651 24.8374C151.87 24.5294 151.979 24.1419 151.979 23.6749C151.979 22.9297 151.721 22.3584 151.204 21.961C150.698 21.5636 149.878 21.3649 148.745 21.3649C147.682 21.3649 146.768 21.5735 146.003 21.9908C145.248 22.3982 144.552 23.0092 143.916 23.8239H143.618L142.426 22.1398C143.122 21.2556 144.006 20.5551 145.079 20.0385C146.152 19.5119 147.374 19.2486 148.745 19.2486C150.683 19.2486 152.108 19.6758 153.022 20.5303C153.946 21.3748 154.408 22.5472 154.408 24.0475V32.766C154.408 33.68 154.796 34.1371 155.571 34.1371C155.829 34.1371 156.078 34.0924 156.316 34.0029L156.525 34.0626L156.808 35.7466C156.629 35.8659 156.391 35.9553 156.093 36.0149C155.804 36.0845 155.506 36.1192 155.198 36.1192C154.294 36.1192 153.609 35.9205 153.142 35.5231C152.685 35.1257 152.392 34.5395 152.262 33.7645L151.949 33.7347C151.482 34.5991 150.852 35.2449 150.057 35.6721C149.262 36.0994 148.263 36.313 147.061 36.313ZM147.598 34.3755C148.512 34.3755 149.302 34.1669 149.967 33.7496C150.643 33.3224 151.16 32.7262 151.517 31.9612C151.875 31.1961 152.054 30.3119 152.054 29.3084V27.2219L151.771 27.1623C151.403 27.4206 150.956 27.6392 150.429 27.818C149.903 27.9869 149.167 28.1409 148.224 28.28C147.27 28.4092 146.51 28.6079 145.943 28.8762C145.387 29.1444 144.99 29.4872 144.751 29.9045C144.513 30.3119 144.393 30.8186 144.393 31.4247C144.393 32.3884 144.677 33.1236 145.243 33.6304C145.809 34.1271 146.594 34.3755 147.598 34.3755ZM168.209 33.3919L168.984 35.1356C168.596 35.5231 168.085 35.8162 167.449 36.0149C166.823 36.2136 166.142 36.313 165.407 36.313C162.268 36.313 160.698 34.7233 160.698 31.5439V21.5437H157.836V19.5467H160.698V16.0742L163.127 15.6718V19.5467H168.418V21.5437H163.127V31.3054C163.127 33.1932 163.947 34.1371 165.586 34.1371C166.48 34.1371 167.25 33.8887 167.896 33.3919H168.209ZM173.693 16.3871C173.177 16.3871 172.755 16.2282 172.427 15.9102C172.109 15.5823 171.95 15.17 171.95 14.6732C171.95 14.1765 172.109 13.7691 172.427 13.4512C172.755 13.1233 173.177 12.9593 173.693 12.9593C174.21 12.9593 174.627 13.1233 174.945 13.4512C175.273 13.7691 175.437 14.1765 175.437 14.6732C175.437 15.17 175.273 15.5823 174.945 15.9102C174.627 16.2282 174.21 16.3871 173.693 16.3871ZM172.471 36V19.5616H174.901V36H172.471ZM187.211 36.313C185.661 36.313 184.31 35.9851 183.157 35.3293C182.015 34.6736 181.13 33.7098 180.504 32.4381C179.888 31.1564 179.58 29.6064 179.58 27.7882C179.58 25.97 179.888 24.4201 180.504 23.1384C181.13 21.8567 182.015 20.888 183.157 20.2322C184.31 19.5765 185.661 19.2486 187.211 19.2486C188.761 19.2486 190.107 19.5765 191.25 20.2322C192.402 20.888 193.286 21.8567 193.902 23.1384C194.528 24.4201 194.841 25.97 194.841 27.7882C194.841 29.6064 194.528 31.1564 193.902 32.4381C193.286 33.7098 192.402 34.6736 191.25 35.3293C190.107 35.9851 188.761 36.313 187.211 36.313ZM187.211 34.1371C188.85 34.1371 190.102 33.6204 190.966 32.5871C191.841 31.5538 192.278 29.9542 192.278 27.7882C192.278 25.6123 191.841 24.0077 190.966 22.9744C190.102 21.9411 188.85 21.4245 187.211 21.4245C185.571 21.4245 184.315 21.9461 183.44 22.9893C182.566 24.0226 182.129 25.6223 182.129 27.7882C182.129 29.9542 182.566 31.5538 183.44 32.5871C184.315 33.6204 185.571 34.1371 187.211 34.1371ZM199.506 36V19.5616H201.816V22.1398L202.129 22.2144C202.676 21.2506 203.371 20.5154 204.216 20.0087C205.07 19.5019 206.108 19.2486 207.33 19.2486C209.308 19.2486 210.738 19.7553 211.623 20.7687C212.517 21.7722 212.964 23.3222 212.964 25.4186V36H210.535V25.4782C210.535 24.4846 210.405 23.6898 210.147 23.0937C209.899 22.4876 209.506 22.0504 208.97 21.7822C208.443 21.504 207.748 21.3649 206.883 21.3649C205.403 21.3649 204.206 21.8567 203.292 22.8403C202.387 23.814 201.935 25.3888 201.935 27.5647V36H199.506Z" fill="white"/>
<path d="M77.7305 57.029C77.4722 57.029 77.261 56.9495 77.0971 56.7906C76.9381 56.6266 76.8586 56.4205 76.8586 56.1721C76.8586 55.9237 76.9381 55.72 77.0971 55.561C77.261 55.3971 77.4722 55.3151 77.7305 55.3151C77.9888 55.3151 78.1975 55.3971 78.3564 55.561C78.5204 55.72 78.6023 55.9237 78.6023 56.1721C78.6023 56.4205 78.5204 56.6266 78.3564 56.7906C78.1975 56.9495 77.9888 57.029 77.7305 57.029ZM77.1194 66.8354V58.6162H78.3341V66.8354H77.1194ZM81.203 66.8354V58.6162H82.358V59.9054L82.5145 59.9426C82.7877 59.4608 83.1355 59.0931 83.5577 58.8398C83.9849 58.5864 84.5041 58.4597 85.1151 58.4597C86.1037 58.4597 86.8191 58.7131 87.2612 59.2198C87.7083 59.7216 87.9319 60.4965 87.9319 61.5447V66.8354H86.7172V61.5746C86.7172 61.0778 86.6527 60.6803 86.5235 60.3823C86.3993 60.0792 86.2031 59.8607 85.9348 59.7265C85.6715 59.5874 85.3238 59.5179 84.8916 59.5179C84.1514 59.5179 83.5527 59.7638 83.0957 60.2556C82.6436 60.7424 82.4176 61.5298 82.4176 62.6178V66.8354H81.203ZM91.0094 66.8354V59.6073H89.5787V58.6088H91.0094C90.92 58.2511 90.8753 57.9108 90.8753 57.5879C90.8753 57.0563 90.9871 56.6092 91.2106 56.2466C91.4391 55.879 91.7546 55.6057 92.157 55.4269C92.5594 55.2481 93.0239 55.1586 93.5504 55.1586C94.3701 55.1586 94.9986 55.335 95.4357 55.6877L94.9663 56.5447L94.8098 56.5745C94.4869 56.3161 94.0671 56.187 93.5504 56.187C93.0686 56.187 92.7034 56.3112 92.455 56.5596C92.2116 56.8079 92.0899 57.1607 92.0899 57.6177C92.0899 57.9009 92.1346 58.2312 92.224 58.6088H94.8396V59.6073H92.224V66.8354H91.0094ZM99.6459 66.9919C98.871 66.9919 98.1953 66.828 97.6191 66.5001C97.0478 66.1722 96.6056 65.6904 96.2927 65.0545C95.9847 64.4136 95.8307 63.6387 95.8307 62.7296C95.8307 61.8205 95.9847 61.0455 96.2927 60.4046C96.6056 59.7638 97.0478 59.2794 97.6191 58.9516C98.1953 58.6237 98.871 58.4597 99.6459 58.4597C100.421 58.4597 101.094 58.6237 101.665 58.9516C102.242 59.2794 102.684 59.7638 102.992 60.4046C103.305 61.0455 103.461 61.8205 103.461 62.7296C103.461 63.6387 103.305 64.4136 102.992 65.0545C102.684 65.6904 102.242 66.1722 101.665 66.5001C101.094 66.828 100.421 66.9919 99.6459 66.9919ZM99.6459 65.904C100.466 65.904 101.092 65.6457 101.524 65.129C101.961 64.6124 102.18 63.8125 102.18 62.7296C102.18 61.6416 101.961 60.8393 101.524 60.3227C101.092 59.806 100.466 59.5477 99.6459 59.5477C98.8262 59.5477 98.1978 59.8085 97.7606 60.3301C97.3235 60.8468 97.1049 61.6466 97.1049 62.7296C97.1049 63.8125 97.3235 64.6124 97.7606 65.129C98.1978 65.6457 98.8262 65.904 99.6459 65.904ZM109.922 65.5314L110.309 66.4033C110.116 66.597 109.86 66.7435 109.542 66.8429C109.229 66.9423 108.889 66.9919 108.521 66.9919C106.951 66.9919 106.166 66.1971 106.166 64.6074V59.6073H104.735V58.6088H106.166V56.8725L107.381 56.6713V58.6088H110.026V59.6073H107.381V64.4882C107.381 65.432 107.791 65.904 108.61 65.904C109.057 65.904 109.442 65.7798 109.765 65.5314H109.922ZM118.35 63.0053H112.701C112.736 64.0038 112.975 64.7366 113.417 65.2035C113.864 65.6705 114.475 65.904 115.25 65.904C115.836 65.904 116.308 65.7997 116.666 65.591C117.023 65.3824 117.304 65.0545 117.508 64.6074H117.664L118.454 65.0768C118.216 65.673 117.833 66.1424 117.306 66.4852C116.785 66.823 116.099 66.9919 115.25 66.9919C114.455 66.9919 113.772 66.8354 113.201 66.5225C112.629 66.2095 112.19 65.7351 111.882 65.0992C111.574 64.4633 111.42 63.6734 111.42 62.7296C111.42 61.7956 111.581 61.0082 111.904 60.3674C112.232 59.7265 112.676 59.2496 113.238 58.9366C113.804 58.6187 114.45 58.4597 115.175 58.4597C116.228 58.4597 117.051 58.7578 117.642 59.3539C118.233 59.9451 118.531 60.8244 118.536 61.9918C118.536 62.4489 118.526 62.7569 118.506 62.9159L118.35 63.0053ZM117.336 61.9918C117.316 61.1175 117.123 60.4816 116.755 60.0842C116.387 59.6868 115.861 59.4881 115.175 59.4881C114.455 59.4881 113.889 59.6893 113.476 60.0917C113.069 60.4891 112.821 61.1225 112.731 61.9918H117.336ZM123.998 66.9919C123.273 66.9919 122.622 66.828 122.046 66.5001C121.469 66.1673 121.015 65.6804 120.682 65.0396C120.349 64.3938 120.183 63.6238 120.183 62.7296C120.183 61.8304 120.349 61.0604 120.682 60.4195C121.015 59.7737 121.469 59.2869 122.046 58.959C122.622 58.6262 123.273 58.4597 123.998 58.4597C124.867 58.4597 125.558 58.6237 126.07 58.9516C126.586 59.2794 126.959 59.7166 127.187 60.2631L126.36 60.8592H126.211C125.988 60.4071 125.7 60.0768 125.347 59.8681C124.999 59.6545 124.55 59.5477 123.998 59.5477C123.491 59.5477 123.047 59.6669 122.664 59.9054C122.282 60.1438 121.984 60.5015 121.77 60.9784C121.561 61.4553 121.457 62.039 121.457 62.7296C121.457 63.4151 121.564 63.9964 121.777 64.4733C121.991 64.9452 122.287 65.3029 122.664 65.5463C123.047 65.7848 123.491 65.904 123.998 65.904C124.569 65.904 125.041 65.7748 125.414 65.5165C125.791 65.2582 126.087 64.8508 126.301 64.2944H126.457L127.254 64.7639C127.041 65.4544 126.658 65.9984 126.107 66.3958C125.56 66.7932 124.858 66.9919 123.998 66.9919ZM129.192 66.8354V55.3151H130.407V59.7861L130.563 59.8159C131.149 58.9118 131.996 58.4597 133.104 58.4597C134.093 58.4597 134.808 58.7131 135.25 59.2198C135.697 59.7216 135.921 60.4965 135.921 61.5447V66.8354H134.706V61.5746C134.706 61.0778 134.642 60.6803 134.512 60.3823C134.388 60.0792 134.192 59.8607 133.924 59.7265C133.66 59.5874 133.313 59.5179 132.881 59.5179C132.135 59.5179 131.537 59.7588 131.085 60.2407C130.633 60.7226 130.407 61.5149 130.407 62.6178V66.8354H129.192Z" fill="white"/>
</svg>
